# xmcd CD database file
#
# Track frame offsets:
#	182
#	23352
#	41782
#	74332
#	96847
#	119295
#	136650
#	154000
#	169537
#
# Disc length: 2532 seconds
#
# Revision: 1
# Processed by: cddbd v1.5.2PL0 Copyright (c) Steve Scherf et al.
# Submitted via: CDex 1.50
#
DISCID=6809e209
DTITLE=Albert King - Albert
DYEAR=1989
DGENRE=Blues
TTITLE0=Guitar Man
TTITLE1=I'm Ready
TTITLE2=Ain't Nothing You Can Do
TTITLE3=I Don't Care What My Baby Do
TTITLE4=Change Of Pace
TTITLE5=My Babe
TTITLE6=Running Out Of Steam
TTITLE7=Rub My Back
TTITLE8=(Ain't It) A Real Good Sign
EXTD=YEAR: 1989
EXTT0=
EXTT1=
EXTT2=
EXTT3=
EXTT4=
EXTT5=
EXTT6=
EXTT7=
EXTT8=
PLAYORDER=
